# xmcd CD database file
#
# Track frame offsets:
#	187
#	7927
#	11675
#	14325
#	27525
#	38647
#	50957
#	66202
#	82682
#	92037
#	102737
#	114312
#	126725
#	139307
#	151800
#	163587
#	176725
#	191550
#	207062
#	220562
#	231875
#	246200
#	264517
#	278500
#
# Disc length: 3895 seconds
#
# Revision: 1
# Processed by: cddbd v1.5.2PL0 Copyright (c) Steve Scherf et al.
# Submitted via: CDex 1.70beta3
#
DISCID=4a0f3518
DTITLE=Various Artist - アニメ主題歌大全集Disc07
DYEAR=1900
DGENRE=Blues
TTITLE0=玉川砂記子/ムーミンのテーマ
TTITLE1=玉川砂記子/ノンノンのテーマ
TTITLE2=玉川砂記子/パパのうた
TTITLE3=小鳩くるみ/アタックNo.1の歌
TTITLE4=山本正之／サカモト児童合唱団/タイムボカン
TTITLE5=サカモト児童合唱団／ロイヤル・ナイツ/それゆけガイコッツ
TTITLE6=山本正之／少年少女合唱団みずうみ/ヤッターマンの歌
TTITLE7=小原乃梨子／八奈見乗児／たてかべ和也/天才ドロンボー
TTITLE8=小原乃梨子／肝付兼太/バーバファミリーのうた
TTITLE9=肝付兼太/バーバピカリのうた
TTITLE10=藤田淑子/なんじゃらもんじゃら
TTITLE11=藤田淑子/考えマーチ
TTITLE12=田中星児／ムーン・ドロップス/フッフ夢・夢
TTITLE13=田中星児/御免候
TTITLE14=大和田りつ子/神さまおしえて
TTITLE15=大和田りつ子/すてきな恋人たち
TTITLE16=加橋かつみ/ニルスのふしぎな旅
TTITLE17=加橋かつみ/いつまでも友だち
TTITLE18=宮内良/黄金戦士ゴールドライタン
TTITLE19=TOMO/メカニカル・ダンシング・ファイト
TTITLE20=藤原誠/マクロス
TTITLE21=藤原誠/ランナー
TTITLE22=松岡洋子/あつまれ!ゆかいな忍者たち
TTITLE23=松岡洋子/はいやー!一平Go&Go
EXTD=
EXTT0=
EXTT1=
EXTT2=
EXTT3=
EXTT4=
EXTT5=
EXTT6=
EXTT7=
EXTT8=
EXTT9=
EXTT10=
EXTT11=
EXTT12=
EXTT13=
EXTT14=
EXTT15=
EXTT16=
EXTT17=
EXTT18=
EXTT19=
EXTT20=
EXTT21=
EXTT22=
EXTT23=
PLAYORDER=
